<?xml version="1.0" standalone="no"?>
<!DOCTYPE svg PUBLIC "-//W3C//DTD SVG 20010904//EN"
 "http://www.w3.org/TR/2001/REC-SVG-20010904/DTD/svg10.dtd">
<svg version="1.0" xmlns="http://www.w3.org/2000/svg"
 width="878.000000pt" height="878.000000pt" viewBox="0 0 878.000000 878.000000"
 preserveAspectRatio="xMidYMid meet">

<g transform="translate(0.000000,878.000000) scale(0.100000,-0.100000)"
fill="#000000" stroke="none">
<path d="M0 4390 l0 -4390 4390 0 4390 0 0 4390 0 4390 -4390 0 -4390 0 0
-4390z m3657 1279 c242 -27 454 -127 625 -295 80 -78 158 -181 158 -206 0 -12
-132 -93 -150 -93 -4 0 -28 27 -53 60 -308 410 -896 468 -1269 126 -226 -208
-327 -507 -269 -799 53 -271 226 -494 474 -613 406 -194 873 -54 1109 332 20
34 39 66 41 72 4 13 156 -61 164 -79 13 -33 -127 -236 -220 -319 -236 -213
-527 -310 -829 -277 -287 32 -533 162 -703 373 -131 162 -200 317 -230 514
-19 125 -19 184 0 310 53 354 266 646 583 796 126 60 213 85 345 99 107 11
119 11 224 -1z m191 -549 c1 -36 -1 -70 -5 -75 -5 -6 -35 -9 -70 -7 l-63 4 0
67 c0 37 3 71 7 75 4 4 34 6 68 4 l60 -3 3 -65z m1152 49 c157 -25 242 -108
264 -256 l4 -33 -83 0 -83 0 -7 30 c-17 76 -96 122 -210 123 -87 0 -137 -16
-170 -54 -62 -75 -6 -151 140 -189 22 -5 88 -21 147 -35 226 -52 303 -122 302
-275 -1 -138 -71 -225 -219 -272 -100 -32 -283 -31 -370 2 -63 24 -115 58
-152 100 -29 33 -63 123 -63 166 l0 34 78 0 78 0 12 -42 c15 -54 37 -80 93
-109 38 -21 58 -24 154 -24 98 0 115 3 152 24 58 33 82 91 59 144 -25 60 -76
83 -318 140 -121 29 -158 44 -210 87 -52 43 -78 103 -78 178 0 197 202 306
480 261z m590 -94 c71 -214 232 -690 235 -693 2 -2 13 27 25 65 11 37 68 213
127 391 l106 322 83 0 c46 0 84 -3 84 -7 0 -9 -13 -44 -204 -568 -71 -192
-132 -358 -138 -368 -8 -15 -21 -17 -90 -15 -59 2 -83 7 -89 18 -8 15 -76 194
-224 595 -40 110 -85 230 -99 268 -14 37 -26 70 -26 73 0 2 41 3 92 2 l92 -3
26 -80z m-1981 -54 c11 -7 13 -30 9 -104 -3 -52 -8 -99 -12 -106 -10 -15 -202
-15 -212 0 -7 12 -6 198 2 211 7 11 195 10 213 -1z m-241 -253 c17 -15 16
-177 -2 -200 -11 -15 -29 -18 -96 -18 -113 0 -120 7 -120 117 0 58 4 89 14 98
24 24 175 26 204 3z m476 -4 c10 -25 7 -177 -4 -194 -7 -11 -33 -16 -95 -19
-116 -4 -125 4 -125 111 0 117 1 118 119 118 81 0 100 -3 105 -16z m-180 -240
c13 -5 16 -27 16 -138 0 -72 4 -136 8 -143 4 -7 38 -13 82 -15 l75 -3 3 -60
c5 -103 4 -105 -83 -105 -85 0 -83 -3 -87 105 l-3 60 -140 5 -139 5 -9 40
c-13 60 -3 235 14 246 16 10 239 12 263 3z m1065 -625 c108 -56 205 -109 215
-120 11 -10 19 -31 19 -46 0 -43 -39 -101 -73 -108 -31 -7 -38 -4 -220 92 -52
27 -127 67 -167 87 -90 47 -105 74 -74 134 23 45 44 61 80 62 12 0 111 -45
220 -101z m-1753 -523 c18 -25 18 -90 0 -105 -12 -10 -12 -16 -1 -39 7 -15 15
-48 18 -74 4 -47 4 -48 -24 -48 -27 0 -29 3 -29 41 0 67 -12 79 -80 79 l-60 0
0 -60 c0 -47 -3 -60 -15 -60 -8 0 -18 0 -22 0 -5 0 -12 288 -6 293 1 1 47 0
103 -3 86 -4 104 -8 116 -24z m1314 -16 c0 -47 1 -50 19 -40 31 16 79 12 101
-10 17 -17 20 -33 20 -110 0 -83 -1 -90 -20 -90 -18 0 -20 7 -20 71 0 80 -11
109 -42 109 -43 0 -58 -27 -58 -107 0 -66 -2 -73 -20 -73 -19 0 -20 7 -20 143
0 79 3 147 7 150 3 4 12 7 20 7 9 0 13 -15 13 -50z m480 22 c28 -21 40 -62 17
-62 -7 0 -19 11 -25 25 -8 17 -20 25 -36 25 -13 0 -31 2 -39 5 -7 3 -24 -3
-37 -13 -17 -14 -21 -25 -17 -44 6 -21 17 -28 74 -42 86 -21 105 -38 101 -89
-4 -54 -39 -80 -107 -81 -42 -1 -54 4 -80 28 -32 31 -41 66 -17 66 8 0 18 -9
21 -20 17 -53 121 -65 146 -18 21 40 -2 64 -77 81 -75 18 -96 33 -96 72 0 83
98 122 172 67z m350 -127 c0 -122 -2 -145 -15 -145 -13 0 -15 23 -15 145 0
122 2 145 15 145 13 0 15 -23 15 -145z m430 125 c0 -13 -7 -20 -20 -20 -13 0
-20 7 -20 20 0 13 7 20 20 20 13 0 20 -7 20 -20z m-110 -30 c0 -19 5 -30 14
-30 24 0 30 -21 7 -27 -19 -5 -21 -13 -21 -74 0 -59 3 -70 21 -80 28 -15 9
-34 -25 -25 -25 6 -26 8 -26 91 0 69 -3 85 -15 85 -8 0 -15 7 -15 15 0 8 7 15
15 15 10 0 15 10 15 30 0 20 5 30 15 30 10 0 15 -10 15 -30z m-2251 -37 c21
-17 45 -89 35 -105 -3 -4 -39 -8 -80 -8 -41 0 -74 -3 -74 -8 0 -4 7 -18 16
-30 19 -28 59 -29 81 -2 19 22 53 27 53 8 -1 -48 -82 -82 -139 -59 -36 15 -51
48 -51 112 0 42 5 55 29 80 35 34 95 40 130 12z m209 1 c27 -19 30 -54 3 -54
-10 0 -22 7 -25 16 -4 10 -16 14 -38 12 -54 -5 -41 -30 27 -53 48 -16 61 -25
63 -44 9 -60 -24 -91 -95 -91 -41 0 -83 31 -83 62 0 25 36 23 50 -2 11 -20 43
-26 74 -14 32 12 16 34 -36 49 -29 8 -59 19 -67 24 -20 13 -18 67 4 91 22 25
90 27 123 4z m223 -13 c21 -22 29 -39 29 -65 l0 -36 -75 0 c-78 0 -88 -7 -61
-42 18 -24 59 -23 81 2 20 23 55 27 55 7 0 -20 -37 -56 -65 -63 -35 -9 -89 3
-108 24 -20 23 -30 73 -22 116 16 84 107 115 166 57z m217 13 c19 -13 22 -24
22 -91 0 -59 4 -78 17 -88 9 -7 13 -17 9 -23 -9 -14 -38 -16 -52 -3 -5 6 -25
5 -51 -2 -72 -19 -116 20 -99 88 6 24 25 32 109 50 40 8 33 39 -10 43 -23 2
-35 -3 -46 -19 -18 -25 -47 -19 -47 10 0 28 38 51 85 51 22 0 51 -7 63 -16z
m117 6 c4 -6 13 -5 24 2 10 6 25 8 34 5 20 -8 15 -40 -7 -43 -37 -5 -46 -24
-46 -101 0 -71 -1 -74 -22 -71 -22 3 -23 8 -26 97 -1 52 -1 100 2 108 6 15 32
17 41 3z m245 -10 c26 -26 26 -60 0 -60 -10 0 -24 9 -30 20 -26 48 -90 10 -90
-53 0 -70 53 -102 86 -52 19 30 54 34 54 6 0 -10 -9 -29 -19 -42 -16 -20 -29
-24 -70 -24 -59 0 -79 15 -91 70 -20 89 20 155 96 155 31 0 50 -6 64 -20z
m778 9 c64 -22 84 -113 37 -174 -29 -38 -67 -48 -113 -30 -86 37 -59 209 34
214 6 1 25 -4 42 -10z m753 -4 c48 -25 63 -92 35 -159 -26 -62 -109 -69 -157
-13 -16 17 -19 34 -16 80 3 60 19 82 72 99 31 9 34 9 66 -7z m452 -13 c9 -8
17 -21 17 -29 0 -20 -23 -16 -38 7 -19 31 -82 24 -82 -10 0 -12 18 -24 61 -39
64 -24 75 -36 65 -77 -8 -32 -62 -56 -105 -48 -43 9 -83 74 -46 74 8 0 15 -4
15 -9 0 -33 72 -55 98 -29 27 27 13 44 -47 61 -63 18 -78 36 -67 82 11 42 88
53 129 17z m-971 -69 l3 -88 30 -3 c51 -4 59 9 63 98 3 60 8 80 18 80 11 0 14
-22 14 -105 0 -100 -8 -125 -28 -89 -8 14 -10 14 -21 0 -8 -9 -29 -16 -51 -16
-57 0 -66 29 -61 183 1 17 7 27 16 27 11 0 15 -19 17 -87z m338 -18 c0 -98 -1
-105 -20 -105 -19 0 -20 7 -20 105 0 98 1 105 20 105 19 0 20 -7 20 -105z
m305 95 c4 -7 12 -7 25 0 10 5 34 10 53 10 52 0 67 -30 67 -130 0 -72 -2 -81
-17 -78 -15 3 -18 17 -21 88 -2 50 -8 88 -15 92 -21 13 -46 9 -67 -12 -16 -16
-20 -33 -20 -95 0 -60 -3 -75 -15 -75 -12 0 -15 18 -15 105 0 95 7 123 25 95z"/>
<path d="M2800 3315 l0 -45 51 0 c59 0 89 13 89 40 0 44 -10 50 -76 50 l-64 0
0 -45z"/>
<path d="M3093 3278 c-27 -35 -25 -38 31 -38 58 0 67 8 40 34 -19 19 -58 21
-71 4z"/>
<path d="M3517 3272 c-26 -28 -21 -32 38 -32 58 0 66 7 37 33 -24 22 -55 21
-75 -1z"/>
<path d="M3773 3203 c-41 -5 -60 -27 -43 -48 17 -20 53 -19 73 3 17 19 23 53
10 50 -5 0 -22 -3 -40 -5z"/>
<path d="M4907 3285 c-35 -34 -32 -126 4 -146 51 -27 99 15 99 86 0 61 -65 98
-103 60z"/>
<path d="M5646 3281 c-10 -11 -20 -37 -23 -58 -6 -46 25 -93 62 -93 53 0 85
97 49 148 -19 28 -64 29 -88 3z"/>
</g>
</svg>
