<?xml version="1.0" standalone="no"?>
<!DOCTYPE svg PUBLIC "-//W3C//DTD SVG 20010904//EN"
 "http://www.w3.org/TR/2001/REC-SVG-20010904/DTD/svg10.dtd">
<svg version="1.0" xmlns="http://www.w3.org/2000/svg"
 width="999.000000pt" height="788.000000pt" viewBox="0 0 999.000000 788.000000"
 preserveAspectRatio="xMidYMid meet">

<g transform="translate(0.000000,788.000000) scale(0.100000,-0.100000)"
fill="#000000" stroke="none">
<path d="M0 3940 l0 -3940 4995 0 4995 0 0 3940 0 3940 -4995 0 -4995 0 0
-3940z m4025 1406 l35 -15 0 -107 c0 -142 -2 -144 -127 -144 -124 0 -132 8
-132 130 -1 89 9 114 54 138 29 16 130 14 170 -2z m-408 -288 c22 -21 23 -27
23 -190 0 -221 13 -208 -198 -208 -216 0 -202 -14 -202 200 0 176 3 200 26
200 8 0 14 5 14 10 0 6 59 10 157 10 147 0 158 -1 180 -22z m-434 -440 c38
-18 47 -55 47 -195 0 -147 -13 -187 -62 -197 -17 -3 -88 -6 -159 -6 -121 0
-129 1 -156 24 l-28 24 -3 151 -3 151 30 30 29 30 139 0 c90 0 148 -4 166 -12z
m836 -3 c16 -8 31 -22 35 -30 3 -9 6 -82 6 -162 l0 -145 -29 -29 -29 -29 -130
0 c-136 0 -186 10 -202 40 -15 28 -13 313 3 332 25 32 53 37 185 38 98 0 141
-4 161 -15z m-277 -462 c16 -15 18 -36 18 -248 0 -166 3 -234 12 -243 8 -8 51
-12 130 -12 157 0 158 -1 158 -154 0 -61 -4 -116 -8 -122 -16 -25 -56 -34
-145 -34 -89 0 -96 2 -121 26 -25 26 -26 31 -26 139 0 92 -3 115 -17 126 -12
11 -72 15 -250 19 -193 4 -235 8 -243 20 -5 8 -10 117 -10 242 0 193 2 229 16
242 13 14 49 16 241 16 197 0 229 -2 245 -17z m1542 -926 c44 -24 97 -49 116
-57 19 -8 37 -17 40 -21 5 -7 359 -190 527 -273 118 -59 118 -59 40 -207 -48
-91 -71 -125 -86 -127 -11 -2 -82 28 -156 67 -75 39 -142 71 -150 71 -8 0 -15
4 -15 8 0 4 -71 43 -157 87 -87 44 -160 82 -163 85 -3 3 -58 32 -122 65 -95
48 -118 64 -118 81 0 23 79 191 112 236 10 16 26 28 35 28 9 0 52 -19 97 -43z
m383 -1068 c46 -22 76 -57 87 -101 6 -26 4 -28 -24 -28 -24 0 -32 6 -44 34
-16 38 -42 56 -78 56 -13 0 -29 5 -36 12 -9 9 -15 9 -24 0 -7 -7 -24 -12 -38
-12 -32 0 -58 -26 -66 -67 -10 -49 25 -76 131 -102 50 -13 105 -29 122 -36 63
-27 93 -123 57 -184 -29 -49 -81 -74 -165 -79 -105 -6 -166 22 -203 95 -25 50
-21 73 12 73 24 0 29 -5 40 -44 10 -39 16 -46 57 -61 33 -13 61 -16 102 -12
76 8 107 32 111 85 4 57 -20 75 -131 102 -104 25 -162 51 -177 79 -17 32 -12
103 10 139 42 68 169 93 257 51z m653 -244 l0 -255 -30 0 -30 0 0 248 c0 137
3 252 7 255 3 4 17 7 30 7 l23 0 0 -255z m753 234 c8 -31 -2 -49 -29 -49 -21
0 -24 5 -24 35 0 30 3 35 24 35 16 0 26 -7 29 -21z m-183 -72 c0 -51 1 -53 28
-52 20 0 27 -5 27 -20 0 -15 -7 -19 -29 -20 l-28 0 1 -135 c1 -74 4 -137 7
-139 3 -3 15 -6 27 -6 15 0 22 -6 22 -20 0 -30 -66 -34 -95 -5 -20 20 -21 30
-18 161 l3 141 -27 5 c-19 4 -28 12 -28 24 0 14 7 19 28 19 26 0 27 1 24 50
-4 50 -4 50 27 50 31 0 31 0 31 -53z m-802 -61 c20 -13 45 -33 54 -45 27 -33
39 -102 28 -160 -20 -109 -67 -153 -166 -159 -57 -4 -63 -2 -99 29 -86 76 -99
199 -31 292 48 67 147 86 214 43z m1313 4 c43 -22 79 -71 79 -107 0 -12 5 -25
11 -29 10 -6 9 -23 -5 -84 -13 -56 -39 -98 -79 -124 -36 -24 -50 -27 -100 -24
-93 7 -143 59 -154 160 -17 166 114 276 248 208z m409 5 c52 -27 60 -58 60
-220 l0 -145 -24 0 -25 0 -3 145 c-3 163 -8 174 -74 180 -63 6 -105 -27 -110
-85 0 -8 -2 -66 -3 -127 l-1 -113 -30 0 -30 0 0 186 0 185 28 -3 c15 -2 28 -9
28 -15 1 -7 2 -17 3 -23 0 -5 20 4 44 20 47 33 93 38 137 15z m390 -25 c46
-46 51 -70 16 -70 -16 0 -27 7 -31 21 -11 35 -100 53 -146 29 -23 -13 -26 -62
-4 -80 15 -12 17 -13 83 -25 23 -4 45 -12 48 -16 3 -5 12 -9 21 -9 9 0 27 -10
40 -22 45 -42 21 -132 -43 -163 -47 -22 -132 -19 -172 5 -36 22 -70 86 -54
102 15 15 46 5 50 -17 10 -54 92 -81 151 -51 26 14 31 22 31 51 0 28 -5 37
-30 50 -16 8 -38 15 -49 15 -31 0 -115 39 -133 63 -52 66 22 157 130 157 47 0
55 -3 92 -40z m-1730 -102 c0 -87 5 -142 13 -158 23 -46 88 -52 138 -11 23 18
24 27 29 158 l5 138 28 3 27 3 -2 -183 -3 -183 -23 -3 c-19 -3 -23 1 -22 20 4
40 1 41 -26 14 -37 -37 -92 -52 -137 -37 -67 23 -72 35 -75 212 l-3 159 25 0
26 0 0 -132z m605 -53 l0 -180 -27 -3 -28 -3 0 186 0 186 28 -3 27 -3 0 -180z"/>
<path d="M5963 1985 c-42 -18 -65 -59 -70 -130 -4 -44 -1 -70 11 -92 26 -52
43 -63 98 -63 43 0 54 4 78 30 24 26 29 40 32 98 4 75 0 97 -23 129 -21 30
-87 44 -126 28z"/>
<path d="M7265 1979 c-34 -17 -48 -50 -53 -125 -7 -111 25 -154 116 -154 76 0
102 43 99 165 -2 71 -4 79 -30 101 -30 26 -93 32 -132 13z"/>
</g>
</svg>
